<mxfile host="app.diagrams.net" agent="Mozilla/5.0 (Windows NT 10.0; Win64; x64) AppleWebKit/537.36 (KHTML, like Gecko) Chrome/131.0.0.0 Safari/537.36" version="24.7.16">
  <diagram name="第 1 页" id="lh0PWTEyZpM1NrKBv4md">
    <mxGraphModel dx="1816" dy="509" grid="1" gridSize="10" guides="1" tooltips="1" connect="1" arrows="1" fold="1" page="1" pageScale="1" pageWidth="827" pageHeight="1169" math="0" shadow="0">
      <root>
        <mxCell id="0" />
        <mxCell id="1" parent="0" />
        <mxCell id="iVhNm88j1e87I2BbPmsk-7" value="" style="edgeStyle=orthogonalEdgeStyle;rounded=0;orthogonalLoop=1;jettySize=auto;html=1;labelBackgroundColor=none;fontColor=default;" edge="1" parent="1" source="iVhNm88j1e87I2BbPmsk-1" target="iVhNm88j1e87I2BbPmsk-2">
          <mxGeometry relative="1" as="geometry" />
        </mxCell>
        <mxCell id="iVhNm88j1e87I2BbPmsk-1" value="IDLE" style="ellipse;whiteSpace=wrap;html=1;labelBackgroundColor=none;" vertex="1" parent="1">
          <mxGeometry x="90" y="100" width="60" height="50" as="geometry" />
        </mxCell>
        <mxCell id="iVhNm88j1e87I2BbPmsk-8" value="" style="edgeStyle=orthogonalEdgeStyle;rounded=0;orthogonalLoop=1;jettySize=auto;html=1;labelBackgroundColor=none;fontColor=default;" edge="1" parent="1" source="iVhNm88j1e87I2BbPmsk-2" target="iVhNm88j1e87I2BbPmsk-3">
          <mxGeometry relative="1" as="geometry" />
        </mxCell>
        <mxCell id="iVhNm88j1e87I2BbPmsk-2" value="INPUT" style="ellipse;whiteSpace=wrap;html=1;labelBackgroundColor=none;fillColor=#dae8fc;strokeColor=#6c8ebf;" vertex="1" parent="1">
          <mxGeometry x="210" y="100" width="60" height="50" as="geometry" />
        </mxCell>
        <mxCell id="iVhNm88j1e87I2BbPmsk-9" value="" style="edgeStyle=orthogonalEdgeStyle;rounded=0;orthogonalLoop=1;jettySize=auto;html=1;labelBackgroundColor=none;fontColor=default;" edge="1" parent="1" source="iVhNm88j1e87I2BbPmsk-3" target="iVhNm88j1e87I2BbPmsk-4">
          <mxGeometry relative="1" as="geometry" />
        </mxCell>
        <mxCell id="iVhNm88j1e87I2BbPmsk-3" value="MUL" style="ellipse;whiteSpace=wrap;html=1;labelBackgroundColor=none;fillColor=#ffe6cc;strokeColor=#d79b00;" vertex="1" parent="1">
          <mxGeometry x="350" y="100" width="60" height="50" as="geometry" />
        </mxCell>
        <mxCell id="iVhNm88j1e87I2BbPmsk-40" style="edgeStyle=orthogonalEdgeStyle;rounded=0;orthogonalLoop=1;jettySize=auto;html=1;exitX=0.5;exitY=1;exitDx=0;exitDy=0;" edge="1" parent="1" source="iVhNm88j1e87I2BbPmsk-4">
          <mxGeometry relative="1" as="geometry">
            <mxPoint x="510" y="200" as="targetPoint" />
          </mxGeometry>
        </mxCell>
        <mxCell id="iVhNm88j1e87I2BbPmsk-4" value="OUTPUT" style="ellipse;whiteSpace=wrap;html=1;labelBackgroundColor=none;fillColor=#d5e8d4;strokeColor=#82b366;" vertex="1" parent="1">
          <mxGeometry x="480" y="100" width="60" height="50" as="geometry" />
        </mxCell>
        <mxCell id="iVhNm88j1e87I2BbPmsk-24" value="input_cnt=1111" style="text;html=1;align=center;verticalAlign=middle;resizable=0;points=[];autosize=1;strokeColor=none;fillColor=none;labelBackgroundColor=none;" vertex="1" parent="1">
          <mxGeometry x="260" y="60" width="100" height="30" as="geometry" />
        </mxCell>
        <mxCell id="iVhNm88j1e87I2BbPmsk-26" value="in_valid=1" style="text;html=1;align=center;verticalAlign=middle;resizable=0;points=[];autosize=1;strokeColor=none;fillColor=none;labelBackgroundColor=none;" vertex="1" parent="1">
          <mxGeometry x="140" y="60" width="80" height="30" as="geometry" />
        </mxCell>
        <mxCell id="iVhNm88j1e87I2BbPmsk-39" value="mul_cnt=1_1111" style="text;html=1;align=center;verticalAlign=middle;resizable=0;points=[];autosize=1;strokeColor=none;fillColor=none;" vertex="1" parent="1">
          <mxGeometry x="400" y="60" width="110" height="30" as="geometry" />
        </mxCell>
        <mxCell id="iVhNm88j1e87I2BbPmsk-41" value="" style="edgeStyle=none;orthogonalLoop=1;jettySize=auto;html=1;rounded=0;" edge="1" parent="1">
          <mxGeometry width="100" relative="1" as="geometry">
            <mxPoint x="120" y="200" as="sourcePoint" />
            <mxPoint x="119.66" y="150" as="targetPoint" />
            <Array as="points" />
          </mxGeometry>
        </mxCell>
        <mxCell id="iVhNm88j1e87I2BbPmsk-42" value="" style="endArrow=none;dashed=1;html=1;rounded=0;" edge="1" parent="1">
          <mxGeometry width="50" height="50" relative="1" as="geometry">
            <mxPoint x="120" y="200" as="sourcePoint" />
            <mxPoint x="510" y="200" as="targetPoint" />
            <Array as="points">
              <mxPoint x="330" y="200" />
            </Array>
          </mxGeometry>
        </mxCell>
        <mxCell id="iVhNm88j1e87I2BbPmsk-43" value="output_cnt=1111" style="edgeLabel;html=1;align=center;verticalAlign=middle;resizable=0;points=[];" vertex="1" connectable="0" parent="iVhNm88j1e87I2BbPmsk-42">
          <mxGeometry x="-0.0134" y="-1" relative="1" as="geometry">
            <mxPoint as="offset" />
          </mxGeometry>
        </mxCell>
        <mxCell id="iVhNm88j1e87I2BbPmsk-45" value="" style="rounded=0;whiteSpace=wrap;html=1;rotation=90;fillColor=#dae8fc;strokeColor=#6c8ebf;" vertex="1" parent="1">
          <mxGeometry x="-50" y="538.25" width="257.5" height="25" as="geometry" />
        </mxCell>
        <mxCell id="iVhNm88j1e87I2BbPmsk-46" value="" style="edgeStyle=none;orthogonalLoop=1;jettySize=auto;html=1;rounded=0;" edge="1" parent="1">
          <mxGeometry width="100" relative="1" as="geometry">
            <mxPoint x="30" y="442" as="sourcePoint" />
            <mxPoint x="70" y="442" as="targetPoint" />
            <Array as="points" />
          </mxGeometry>
        </mxCell>
        <mxCell id="iVhNm88j1e87I2BbPmsk-47" value="in_data" style="text;html=1;align=center;verticalAlign=middle;resizable=0;points=[];autosize=1;strokeColor=none;fillColor=none;" vertex="1" parent="1">
          <mxGeometry x="-30" y="430" width="60" height="30" as="geometry" />
        </mxCell>
        <mxCell id="iVhNm88j1e87I2BbPmsk-48" value="" style="edgeStyle=none;orthogonalLoop=1;jettySize=auto;html=1;rounded=0;" edge="1" parent="1">
          <mxGeometry width="100" relative="1" as="geometry">
            <mxPoint x="30" y="672" as="sourcePoint" />
            <mxPoint x="70" y="672" as="targetPoint" />
            <Array as="points" />
          </mxGeometry>
        </mxCell>
        <mxCell id="iVhNm88j1e87I2BbPmsk-49" value="in_valid" style="text;html=1;align=center;verticalAlign=middle;resizable=0;points=[];autosize=1;strokeColor=none;fillColor=none;" vertex="1" parent="1">
          <mxGeometry x="-30" y="662" width="60" height="30" as="geometry" />
        </mxCell>
        <mxCell id="iVhNm88j1e87I2BbPmsk-50" value="inbuffer" style="ellipse;whiteSpace=wrap;html=1;" vertex="1" parent="1">
          <mxGeometry x="130" y="430" width="90" height="60" as="geometry" />
        </mxCell>
        <mxCell id="iVhNm88j1e87I2BbPmsk-52" value="dctmtx" style="ellipse;whiteSpace=wrap;html=1;" vertex="1" parent="1">
          <mxGeometry x="130" y="340" width="90" height="60" as="geometry" />
        </mxCell>
        <mxCell id="iVhNm88j1e87I2BbPmsk-54" value="" style="shape=sumEllipse;perimeter=ellipsePerimeter;whiteSpace=wrap;html=1;backgroundOutline=1;fillColor=#ffe6cc;strokeColor=#d79b00;" vertex="1" parent="1">
          <mxGeometry x="280" y="445" width="30" height="30" as="geometry" />
        </mxCell>
        <mxCell id="iVhNm88j1e87I2BbPmsk-55" value="" style="edgeStyle=none;orthogonalLoop=1;jettySize=auto;html=1;rounded=0;" edge="1" parent="1">
          <mxGeometry width="100" relative="1" as="geometry">
            <mxPoint x="220" y="460" as="sourcePoint" />
            <mxPoint x="280" y="460" as="targetPoint" />
            <Array as="points" />
          </mxGeometry>
        </mxCell>
        <mxCell id="iVhNm88j1e87I2BbPmsk-57" value="" style="edgeStyle=none;orthogonalLoop=1;jettySize=auto;html=1;rounded=0;entryX=0.5;entryY=0;entryDx=0;entryDy=0;" edge="1" parent="1" target="iVhNm88j1e87I2BbPmsk-54">
          <mxGeometry width="100" relative="1" as="geometry">
            <mxPoint x="295" y="370" as="sourcePoint" />
            <mxPoint x="294.65999999999997" y="420" as="targetPoint" />
            <Array as="points" />
          </mxGeometry>
        </mxCell>
        <mxCell id="iVhNm88j1e87I2BbPmsk-63" value="" style="endArrow=none;html=1;rounded=0;" edge="1" parent="1">
          <mxGeometry width="50" height="50" relative="1" as="geometry">
            <mxPoint x="220" y="369.65999999999997" as="sourcePoint" />
            <mxPoint x="300" y="369.65999999999997" as="targetPoint" />
          </mxGeometry>
        </mxCell>
        <mxCell id="iVhNm88j1e87I2BbPmsk-66" value="" style="rounded=0;whiteSpace=wrap;html=1;rotation=90;fillColor=#dae8fc;strokeColor=#6c8ebf;" vertex="1" parent="1">
          <mxGeometry x="230" y="538.25" width="257.5" height="25" as="geometry" />
        </mxCell>
        <mxCell id="iVhNm88j1e87I2BbPmsk-65" value="" style="edgeStyle=none;orthogonalLoop=1;jettySize=auto;html=1;rounded=0;entryX=0;entryY=0.5;entryDx=0;entryDy=0;" edge="1" parent="1" target="iVhNm88j1e87I2BbPmsk-67">
          <mxGeometry width="100" relative="1" as="geometry">
            <mxPoint x="310" y="460" as="sourcePoint" />
            <mxPoint x="350" y="460.34" as="targetPoint" />
            <Array as="points" />
          </mxGeometry>
        </mxCell>
        <mxCell id="iVhNm88j1e87I2BbPmsk-77" style="edgeStyle=orthogonalEdgeStyle;rounded=0;orthogonalLoop=1;jettySize=auto;html=1;entryX=0;entryY=0.5;entryDx=0;entryDy=0;" edge="1" parent="1" source="iVhNm88j1e87I2BbPmsk-67" target="iVhNm88j1e87I2BbPmsk-70">
          <mxGeometry relative="1" as="geometry" />
        </mxCell>
        <mxCell id="iVhNm88j1e87I2BbPmsk-67" value="tmpbuffer" style="ellipse;whiteSpace=wrap;html=1;" vertex="1" parent="1">
          <mxGeometry x="397.5" y="430" width="90" height="60" as="geometry" />
        </mxCell>
        <mxCell id="iVhNm88j1e87I2BbPmsk-68" value="dctmtx" style="ellipse;whiteSpace=wrap;html=1;" vertex="1" parent="1">
          <mxGeometry x="397.5" y="340" width="90" height="60" as="geometry" />
        </mxCell>
        <mxCell id="iVhNm88j1e87I2BbPmsk-69" value="" style="endArrow=none;html=1;rounded=0;" edge="1" parent="1">
          <mxGeometry width="50" height="50" relative="1" as="geometry">
            <mxPoint x="487.5" y="369.65999999999997" as="sourcePoint" />
            <mxPoint x="560" y="370" as="targetPoint" />
          </mxGeometry>
        </mxCell>
        <mxCell id="iVhNm88j1e87I2BbPmsk-83" style="edgeStyle=orthogonalEdgeStyle;rounded=0;orthogonalLoop=1;jettySize=auto;html=1;exitX=1;exitY=0.5;exitDx=0;exitDy=0;" edge="1" parent="1" source="iVhNm88j1e87I2BbPmsk-70">
          <mxGeometry relative="1" as="geometry">
            <mxPoint x="600" y="459.9655172413793" as="targetPoint" />
          </mxGeometry>
        </mxCell>
        <mxCell id="iVhNm88j1e87I2BbPmsk-70" value="" style="shape=sumEllipse;perimeter=ellipsePerimeter;whiteSpace=wrap;html=1;backgroundOutline=1;fillColor=#ffe6cc;strokeColor=#d79b00;" vertex="1" parent="1">
          <mxGeometry x="550" y="445" width="30" height="30" as="geometry" />
        </mxCell>
        <mxCell id="iVhNm88j1e87I2BbPmsk-76" value="" style="edgeStyle=none;orthogonalLoop=1;jettySize=auto;html=1;rounded=0;entryX=0.5;entryY=0;entryDx=0;entryDy=0;" edge="1" parent="1">
          <mxGeometry width="100" relative="1" as="geometry">
            <mxPoint x="560" y="370" as="sourcePoint" />
            <mxPoint x="560" y="445" as="targetPoint" />
            <Array as="points" />
          </mxGeometry>
        </mxCell>
        <mxCell id="iVhNm88j1e87I2BbPmsk-78" value="" style="rounded=0;whiteSpace=wrap;html=1;rotation=90;fillColor=#d5e8d4;strokeColor=#82b366;" vertex="1" parent="1">
          <mxGeometry x="560" y="538.25" width="257.5" height="25" as="geometry" />
        </mxCell>
        <mxCell id="iVhNm88j1e87I2BbPmsk-80" value="out_data" style="text;html=1;align=center;verticalAlign=middle;resizable=0;points=[];autosize=1;strokeColor=none;fillColor=none;" vertex="1" parent="1">
          <mxGeometry x="720" y="445" width="70" height="30" as="geometry" />
        </mxCell>
        <mxCell id="iVhNm88j1e87I2BbPmsk-82" value="out_valid" style="text;html=1;align=center;verticalAlign=middle;resizable=0;points=[];autosize=1;strokeColor=none;fillColor=none;" vertex="1" parent="1">
          <mxGeometry x="730" y="658" width="70" height="30" as="geometry" />
        </mxCell>
        <mxCell id="iVhNm88j1e87I2BbPmsk-85" style="edgeStyle=orthogonalEdgeStyle;rounded=0;orthogonalLoop=1;jettySize=auto;html=1;exitX=1;exitY=0.5;exitDx=0;exitDy=0;" edge="1" parent="1" source="iVhNm88j1e87I2BbPmsk-84" target="iVhNm88j1e87I2BbPmsk-80">
          <mxGeometry relative="1" as="geometry" />
        </mxCell>
        <mxCell id="iVhNm88j1e87I2BbPmsk-84" value="outbuffer" style="ellipse;whiteSpace=wrap;html=1;" vertex="1" parent="1">
          <mxGeometry x="600" y="440" width="60" height="40" as="geometry" />
        </mxCell>
        <mxCell id="iVhNm88j1e87I2BbPmsk-86" value="" style="edgeStyle=none;orthogonalLoop=1;jettySize=auto;html=1;rounded=0;" edge="1" parent="1">
          <mxGeometry width="100" relative="1" as="geometry">
            <mxPoint x="690" y="672.66" as="sourcePoint" />
            <mxPoint x="730" y="672.66" as="targetPoint" />
            <Array as="points" />
          </mxGeometry>
        </mxCell>
      </root>
    </mxGraphModel>
  </diagram>
</mxfile>
